<svg xmlns="http://www.w3.org/2000/svg" width="30" height="30" viewBox="0 0 30 30">
    <g fill="none">
        <path fill="#4285F4" d="M29.304 15.28c0-1.228-.1-2.125-.315-3.055H14.95v5.547h8.24c-.166 1.379-1.063 3.455-3.057 4.85l-.028.186 4.439 3.437.307.031c2.824-2.608 4.452-6.444 4.452-10.995"/>
        <path fill="#34A853" d="M14.951 29.897c4.037 0 7.426-1.329 9.901-3.62l-4.718-3.655c-1.262.88-2.957 1.495-5.183 1.495-3.954 0-7.31-2.608-8.505-6.212l-.176.015-4.615 3.57-.06.169c2.458 4.883 7.509 8.238 13.356 8.238"/>
        <path fill="#FBBC05" d="M6.446 17.905c-.316-.93-.499-1.927-.499-2.957 0-1.03.183-2.026.482-2.956l-.008-.198-4.673-3.629-.153.073C.58 10.265 0 12.54 0 14.948c0 2.409.581 4.684 1.595 6.71l4.85-3.753"/>
        <path fill="#EB4335" d="M14.951 5.78c2.808 0 4.701 1.213 5.781 2.226l4.22-4.12C22.36 1.479 18.988 0 14.952 0 9.103 0 4.052 3.355 1.594 8.238l4.834 3.754C7.642 8.388 10.997 5.78 14.95 5.78"/>
        <path d="M0 0H29.318V30H0z"/>
    </g>
</svg>
