<svg xmlns="http://www.w3.org/2000/svg" width="469" height="438" viewBox="0 0 469 438">
    <g fill="none" fill-rule="evenodd">
        <path fill="#321977" d="M467.986 395.22c0-71.24-60.25-129.22-134.293-129.22H101.834c-23.68 0-42.848 19.157-42.848 42.78 0 23.622 19.168 42.76 42.848 42.76h231.859c26.82 0 48.597 19.587 48.597 43.68 0 23.623 19.207 42.78 42.848 42.78 23.66 0 42.848-19.157 42.848-42.78z" transform="translate(.014)"/>
        <path fill="#0074FF" d="M60.759 129.009h-22.18C17.267 129.009 0 146.292 0 167.606c0 21.295 17.266 38.58 38.58 38.58h22.179c21.295 0 38.58-17.285 38.58-38.58 0-21.314-17.285-38.597-38.58-38.597" transform="translate(.014)"/>
        <path fill="#FF375D" d="M454.184 167.599c0-21.314-17.284-38.598-38.58-38.598h-229.55c-21.314 0-38.58 17.284-38.58 38.598 0 21.313 17.266 38.58 38.58 38.58h229.55c21.296 0 38.58-17.267 38.58-38.58" transform="translate(.014)"/>
        <path fill="#0074FF" d="M345.456 77.177h68.87c21.314 0 38.598-17.284 38.598-38.597C452.924 17.266 435.64 0 414.326 0h-68.87c-21.313 0-38.597 17.266-38.597 38.58 0 21.313 17.284 38.597 38.597 38.597" transform="translate(.014)"/>
        <path fill="#FF375D" d="M60.948 77.177h166.99c21.295 0 38.58-17.284 38.58-38.597 0-21.314-17.285-38.58-38.58-38.58H60.948c-21.296 0-38.58 17.266-38.58 38.58 0 21.313 17.284 38.597 38.58 38.597" transform="translate(.014)"/>
    </g>
</svg>
