<svg xmlns="http://www.w3.org/2000/svg" xmlns:xlink="http://www.w3.org/1999/xlink" width="155" height="155" viewBox="0 0 155 155">
    <defs>
        <circle id="qb1hkml6ka" cx="77.5" cy="77.5" r="77.5"/>
        <path id="5d73227u8c" d="M0 0.405L167.462 0.405 167.462 228 0 228z"/>
    </defs>
    <g fill="none" fill-rule="evenodd">
        <mask id="uqcvig0hbb" fill="#fff">
            <use xlink:href="#qb1hkml6ka"/>
        </mask>
        <use fill="#DFE7F2" xlink:href="#qb1hkml6ka"/>
        <g mask="url(#uqcvig0hbb)">
            <g>
                <path fill="#C6E9FA" d="M121.952 66.258c.19.462-.214.937-.604 1.29-.493.448-1.009.875-1.546 1.281-.136.103-.314.212-.483.156-.11-.037-.175-.133-.233-.222-.627-.979-1.275-2.062-1.035-3.161.392-.466 1.115-.663 1.773-.586.657.078 1.251.396 1.737.788.161.13.316.274.39.454" transform="rotate(30 33.748 78.752)"/>
                <path fill="#FDD19D" d="M58.125 144.59c-.205.268-.569-.072-.437-.343.868-1.784 1.405-3.388 1.618-5.372.034-.31.454-.318.476 0 .14 1.98-.46 4.15-1.657 5.715m5.983-3.36c-.033.506-.145.958-.418 1.237-1.345 1.373-3.388-.156-3.788-1.572-.097-.341.403-.565.567-.244 1.62 3.18 2.858-.471 2.429-2.038-.21-.885-.505-1.741-.888-2.567-.612-1.296-1.229-2.681-2.054-3.856-3.818-5.435-9.287.645-9.788 5.053-.025.224-.355.238-.352 0 .047-4.043 3.407-7.729 6.737-7.813-.79-3.501-4.843-6.108-8.36-4.96-2.941.96-4.31 3.482-6.016 5.882-.271.383-.823.061-.621-.37 1.671-3.584 4.186-6.435 7.977-6.66.606-4.417-4.071-6.15-7.579-6.314-4.093-.191-6.158 3.22-7.172 6.81-1.649 5.833-.789 11.674 3.52 16.11 3.893 4.009 8.726 7.345 14.048 9.016 3.095.972 7.054 1.87 9.962-.194 2.695-1.911 3.496-4.907 1.796-7.52M113 51.053c3.178 3.767 4.915 8.771 5.439 13.947 2.052-2.74 4.225-5.114 5.083-8.538 1.172-4.68.503-10.704-5.595-11.411-.044-.005-.07-.032-.1-.051-.303.696-.647 1.381-1.077 2.042-1.16 1.781-2.316 3.244-3.75 4.01" transform="rotate(30 33.748 78.752)"/>
                <path fill="#FDD19D" d="M75.722 136.687c-1.632.874-3.164.109-4.768-.698-1.803-.908-3.539-1.91-5.23-2.989-.026.033-.04.072-.08.093-.585.318-1.254.4-1.878.614-.59.2-1.164.505-1.766.661.674 1.247 1.279 2.557 1.533 3.91.066.349.174.864.252 1.416 3.868 2.79 2.068 6.99-1.114 9.306 5.037-.335 9.272-1.29 13.329-4.485-.314-2.557-.389-5.178-.278-7.828M49.355 123.127c.376-.007.76.003 1.161.049 2.111.245 4.503 1.76 5.484 3.824-.243-2.918-.714-5.685-3.012-7.867-2.591-2.463-5.586-3.217-8.988-3.126 1.249.356 2.356.843 2.995 1.353 1.854 1.476 2.904 3.426 2.36 5.767" transform="rotate(30 33.748 78.752)"/>
                <path fill="#009ADE" d="M103.572 111.496c-1.174.29-2.488.158-3.596-.356.632 5.8.48 11.78-.588 17.522-.346 1.856-.956 4.061.816 5.46 1.451 1.147 2.91 2.283 4.401 3.377.808.593 6.748 5.436 7.408 4.34 1.821-3.029 3.59-6.09 5.246-9.21.561-1.056 2.41-3.355 1.488-4.612-.91-1.237-1.81-2.48-2.678-3.745-3.328-4.849-6.891-9.9-9.328-15.272-.79 1.199-1.86 2.174-3.169 2.496" transform="rotate(30 33.748 78.752)"/>
                <path fill="#FDD19D" d="M81.497 103.898c5.349-.342 10.617-1.612 15.429-4.001 8.603-4.272 16.1-11.625 19.194-20.86 1.593-4.76 2.29-9.86 1.634-14.862-.653-4.983-2.575-9.04-4.741-13.465-1.136.399-2.454.358-4.083-.308-7.681-3.141-7.02-12.67-12.173-18.05-3.419-3.571-8.62-2.267-12.957-1.302-3.898.867-7.788 1.765-11.502 3.262-4.878 1.964-9.505 4.45-14 7.164-4.052 2.446-8.472 4.854-11.742 8.33-3.919 4.163-5.627 9.036-3.86 14.623 1.12 3.541 3.03 7.124 3.315 10.874.208 2.73-1.219 4.561-3.17 5.358 5.19 9.216 10.706 18.144 21.56 21.301 5.323 1.549 11 2.27 16.603 1.972.166-.032.33-.045.493-.036" transform="rotate(30 33.748 78.752)"/>
                <path fill="#FFF" d="M98.002 101.358c-3.166 1.491-6.538 2.6-10.002 3.32 1.492 1.944 7.398 7.944 8.981 4.016 1.095-2.72 1.977-5.715 3.494-8.224.086-.143.288-.045.258.11-.057.297-.127.595-.201.892.043-.014.082-.038.135-.028 2.146.372 4.272.906 6.328 1.638.421.15 2.574 1.305 2.97.59.597-1.08 1.177-2.167 1.604-3.332 1.383-3.761 1.825-7.428 1.055-11.34-3.74 5.266-8.774 9.602-14.622 12.358" transform="rotate(30 33.748 78.752)"/>
                <path fill="#FDD19D" d="M39.655 81.161c-1.017 3.965-1.177 8.8 1.945 11.934 3 3.013 6.478 3.518 10.4 2.267-3.752-4.09-6.603-9.082-9.205-14.362-.99.302-2.072.365-3.14.161" transform="rotate(30 33.748 78.752)"/>
                <path fill="#009ADE" d="M100.325 102.082c-.053-.015-.073-.052-.105-.082-.565 2.128-1.443 4.222-2.22 6.284.012.003.023-.012.035-.002 2.035 1.54 3.925 4.023 6.724 1.89 1.88-1.43 2.247-3.555 3.241-5.539-2.502-1.028-5.052-1.837-7.675-2.551" transform="rotate(30 33.748 78.752)"/>
                <path fill="#FFF" d="M75.837 134.894c.072-.015.13.01.19.027C76.61 124.645 80.083 113.979 84 105c-1.29.182-2.59.317-3.893.39-2.839 1.369-6.18 5.886-7.35 7.357-2.108 2.65-4.054 5.455-5.649 8.445-1.201 2.254-4.845 7.212-2.118 9.016 2.749 1.817 7.405 5.458 10.847 4.686M119.59 68c-.03 3.981-.711 7.903-1.936 11.269-.944 2.594-2.181 5.073-3.654 7.4 4.23 6.361 7.811 13.059 12.052 19.331 1.544-.537 3.51-3.841 4.299-4.855 1.597-2.054 3.152-4.146 4.598-6.311 2.188-3.275 4.193-6.649 6.051-10.121-8.887-2.344-17.32-8.274-21.41-16.713" transform="rotate(30 33.748 78.752)"/>
                <path fill="#C6E9FA" d="M141 84c-.325-1.28-.473-2.576-1.036-3.81-.534-1.17-1.357-2.14-2.055-3.19-.814 1.837-1.74 3.603-2.909 5.106 1.892.77 3.89 1.405 6 1.894" transform="rotate(30 33.748 78.752)"/>
                <path fill="#FFF" d="M112.478 88.466c.015.022.032.042.044.069 2.3 5.465.116 12.085-2.968 16.801-.158.242-.418.291-.671.177-.347-.156-.699-.291-1.048-.437-.147.987-.494 2.064-1.022 3.064 4.426 6.825 8.27 13.863 13.16 20.414.106.142.073.348 0 .493-2.5 4.959-5.207 9.801-8.094 14.545-.128.21-.43.314-.648.17-3.162-2.115-6.248-4.327-9.268-6.64-1.169-.895-4.233-2.505-4.36-4.26-.257-3.531 1.194-7.36 1.443-10.92.26-3.74.25-7.458.039-11.2-.841-.523-1.511-1.289-1.821-2.297-.114.295-.226.59-.333.884-.353.971-.601 2.266-1.95 2.112-3.855-.438-7.373-2.596-8.963-6.212-.495.092-.99.184-1.49.259.076.072.13.163.093.278-1.945 6.208-4.22 12.27-5.61 18.645-1.427 6.54-1.864 12.963-2.011 19.613l.051-.006c.053-.104.17-.17.305-.087 11.275 6.935 24.5 10.578 37.763 8.476 6.017-.953 11.918-2.791 17.277-5.72 5.07-2.773 9.173-6.38 13.521-10.098-.018-.116-.005-.24.078-.371 3.982-6.243-4.896-10.583-8.744-13.833-3.693-3.121-6.94-6.633-9.926-10.43-5.675-7.22-10.76-15.574-14.547-23.955-.102.154-.196.313-.3.466" transform="rotate(30 33.748 78.752)"/>
                <path fill="#009ADE" d="M131.703 149.174c2.722 2.618 5.852 4.055 9.587 4.5.45.055.477.724 0 .726-3.845.015-7.569-1.83-9.965-4.846-.21-.265.123-.627.378-.38m-42.916 1.267c-.88 3.079-4.975 5.442-7.846 5.899-.41.065-.59-.513-.175-.636 1.595-.475 3.194-1.096 4.53-2.116 1.254-.958 2.058-2.199 3.12-3.288-2.761-1.09-5.422-2.424-7.95-3.993-3.517 2.793-6.713 5.31-9.287 9.117-1.94 2.868-3.434 5.972-5.179 8.939 1.486-.652 4.449.654 5.387 1.046 6.888 2.888 16.504 6.666 19.652 14.14 3.632-6.88 9.63-13.342 18.018-12.446 8.33.89 11.33 10.898 12.347 17.845 5.104.033 10.279.275 15.325-.667 4.534-.847 8.408-2.493 12.336-4.842-.227.056-.482-.1-.404-.393.82-3.08 1.546-5.854 1.285-9.1-.263-3.27-.78-6.54-1.42-9.756-1.273-6.392-3.201-12.413-6.333-18.144-.01-.017 0-.03-.006-.046-7.638 6.496-18.194 10.564-27.608 11.66-8.668 1.01-17.632-.07-25.792-3.219" transform="rotate(30 33.748 78.752)"/>
                <path fill="#FDD19D" d="M162.899 35.902c-1.691.515-3.178 1.222-4.633 2.206-.283.191-.53-.253-.264-.448.304-.222.837-.552 1.489-.907 2.847-2.899 5.582-6.55 6.337-10.644 1.168-6.332-3.93-4.041-5.86-2.254-.563.518-1.122 1.04-1.679 1.566-1.385 1.322-2.737 2.673-4.187 3.926-.096.083-.195.078-.283.044-.103.15-.2.31-.308.451-.13.174-.411.025-.298-.174 1.495-2.628 2.303-5.664 3.137-8.557.519-1.798.89-5.303-.773-6.704-3.42-2.878-9.206 10.39-10.789 12.34-.048.06-.11.08-.171.086-.01.041-.019.084-.03.125-.063.252-.42.14-.381-.105.288-1.802.837-4.05.284-5.868-.273-1.333-.988-2.387-2.144-3.16-2.053-1.279-3.686-.616-4.901 1.988-.69 3.093-.315 6.381-.635 9.529-.591 5.822-1.036 12.564-3.162 18.041-1.655 4.266-4.065 8.334-6.526 12.191-2.177 3.412-4.345 6.973-7.122 9.943 3.907 5.392 8.662 9.727 14.538 12.483l.051-.046c.003-.002.006 0 .009-.003.182-.411.502-.988.568-1.141.487-1.14.96-2.283 1.42-3.434.883-2.204 1.758-4.412 2.681-6.6 2.208-5.233 4.738-10.35 7.592-15.264 1.135-1.955 2.263-4.165 3.958-5.721 1.865-1.712 4.065-2.726 6.317-3.84 2.813-1.391 5.866-3.158 7.385-6.042.927-1.762 1.697-5.015-1.62-4.007" transform="rotate(30 33.748 78.752)"/>
                <path fill="#7A5F60" d="M41.803 66.494c-2.4-7.634.04-14.113 6.26-19.035 6.714-5.313 14.662-10.001 22.58-13.223 6.5-2.647 15.111-5.539 22.242-4.619 6.709.866 7.914 10.583 10.56 15.253 1.332 2.354 4.593 6.283 7.75 5.908 2.406-.286 4.221-3.098 5.182-5.137 2.33-4.948 1.964-10.158.088-15.214-3.24-8.733-8.623-16.28-16.89-20.748-.297-.16-.036-.575.258-.445.069.03.134.067.202.098.477-.32 1.098-.333 1.642-.505.94-.3 2.84-1.486 1.338-2.734-1.628-1.353-3.873-1.127-5.766-.554.126.373-.388.738-.684.416-1.072-1.173-2.18-2.475-3.603-3.232-1.22-.65-3.285-1.37-4.182.326-.713 1.348-.315 2.523.386 3.754.069.12-.006.227-.107.264.054.076.115.146.167.224.291.428-.343.884-.692.54-10.332-10.166-23.236-4.164-35.34-1.573-5.935 1.27-12.078 1.608-18.05.334-3.569-.763-8.957-2.721-11.339 1.363-2.027 3.48-.977 7.075 1.302 10.06 1.298.033 2.618-.005 3.98-.15.392-.043.48.627.092.694-3.384.588-6.826.688-10.197-.08-3.548-.81-6.877-2.937-10.455-3.45-7.595-1.09-9.111 7.213-6.03 12.488 1.897 3.246 4.376 5.587 7.39 7.64.738.154 1.481.342 2.234.549.437.12.253.794-.187.683-2.826-.715-7.398-1.947-9.668.822C.11 39.84.969 43.572 3.402 45.669c3.071 2.646 7.067 4.009 10.715 5.637 2.67 1.194 5.487 2.236 8.076 3.601 1.1.58 2.154 1.254 2.826 2.35 1.992 3.25 3.316 7.075 5.064 10.488 2.047 3.996 4.913 13.712 10.577 13.238 7.635-.638 2.41-10.462 1.143-14.489" transform="rotate(30 33.748 78.752)"/>
                <path fill="#50374E" d="M59.537 138.233c-.199 1.97-.7 3.56-1.51 5.329-.124.27.216.607.407.341 1.119-1.552 1.677-3.706 1.548-5.67-.021-.315-.414-.307-.445 0" transform="rotate(30 33.748 78.752)"/>
                <g transform="rotate(30 33.748 78.752)">
                    <mask id="dvag5emaud" fill="#fff">
                        <use xlink:href="#5d73227u8c"/>
                    </mask>
                    <path fill="#50374E" d="M165.07 39.37c-1.523 2.906-4.584 4.687-7.405 6.09-2.26 1.122-4.467 2.145-6.338 3.87-1.699 1.569-2.83 3.796-3.969 5.767-2.862 4.953-5.4 10.11-7.615 15.385-.925 2.206-1.803 4.432-2.688 6.654-.462 1.16-.936 2.313-1.424 3.46-.066.155-.388.737-.571 1.152-.003.001-.006 0-.008.002l-.051.046c-5.894-2.778-10.663-7.147-14.583-12.582 2.786-2.994 4.961-6.584 7.145-10.022 2.468-3.889 4.884-7.989 6.545-12.289 2.132-5.521 2.579-12.317 3.172-18.185.32-3.173-.056-6.487.636-9.605 1.218-2.624 2.857-3.293 4.915-2.004 1.16.779 1.878 1.841 2.15 3.186.556 1.832.005 4.098-.284 5.914-.039.247.32.36.383.106l.03-.126c.06-.007.123-.027.172-.087 1.587-1.965 7.39-15.339 10.82-12.438 1.67 1.412 1.296 4.945.776 6.757-.837 2.917-1.647 5.976-3.147 8.626-.113.2.17.35.3.175.107-.142.204-.304.308-.454.088.033.187.039.284-.045 1.455-1.263 2.81-2.625 4.2-3.957.558-.53 1.119-1.056 1.683-1.578 1.936-1.802 7.05-4.11 5.878 2.272-.758 4.125-3.5 7.807-6.356 10.729-.654.357-1.188.69-1.494.914-.267.196-.018.644.265.451 1.46-.99 2.95-1.705 4.647-2.223 3.327-1.017 2.555 2.263 1.625 4.038m-25.066 40.65c.52 1.269.655 2.6.955 3.917-1.946-.502-3.788-1.156-5.532-1.949 1.078-1.545 1.933-3.36 2.682-5.249.645 1.08 1.403 2.078 1.895 3.28m-5.406 15.104c-1.458 2.173-3.026 4.27-4.637 6.33-.795 1.017-2.777 4.33-4.334 4.87-4.276-6.29-7.886-13.007-12.152-19.386 1.485-2.335 2.732-4.822 3.684-7.422 1.235-3.377 1.921-7.309 1.953-11.302 4.122 8.463 12.627 14.41 21.587 16.761-1.874 3.482-3.896 6.866-6.1 10.15m-6.854 16.258c2.986 3.805 6.235 7.326 9.929 10.453 3.848 3.257 12.728 7.607 8.746 13.863-.084.132-.096.257-.079.373-4.348 3.726-8.452 7.34-13.524 10.119-5.36 2.936-11.262 4.778-17.28 5.734-13.267 2.106-26.494-1.545-37.772-8.495-.135-.083-.252-.018-.305.087-.016 0-.034.004-.051.007.147-6.666.583-13.104 2.01-19.658 1.392-6.388 3.667-12.463 5.612-18.685.037-.115-.017-.207-.092-.278.499-.076.994-.169 1.49-.26 1.59 3.623 5.109 5.786 8.964 6.226 1.35.153 1.598-1.144 1.951-2.117.107-.295.219-.59.333-.886.31 1.01.98 1.778 1.821 2.302.213 3.75.223 7.476-.039 11.223-.248 3.57-1.7 7.407-1.443 10.946.128 1.757 3.192 3.371 4.361 4.269 3.02 2.318 6.108 4.534 9.27 6.654.218.145.521.04.649-.17 2.887-4.755 5.595-9.608 8.095-14.577.073-.146.107-.352 0-.495-4.89-6.565-8.736-13.617-13.163-20.458.528-1.002.876-2.082 1.023-3.07.349.146.7.28 1.048.437.253.115.513.066.671-.176 3.085-4.728 5.27-11.362 2.97-16.84-.013-.026-.03-.046-.046-.069.104-.153.199-.312.3-.466 3.789 8.399 8.875 16.77 14.551 24.007m20.75 48.337c.638 3.191 1.154 6.434 1.416 9.677.26 3.222-.463 5.974-1.28 9.028-.078.292.177.446.403.39-3.913 2.33-7.773 3.964-12.29 4.804-5.026.935-10.181.695-15.266.662-1.012-6.892-4.001-16.82-12.3-17.704-8.356-.888-14.33 5.521-17.95 12.347-3.135-7.414-12.714-11.162-19.576-14.026-.934-.39-3.886-1.685-5.366-1.038 1.738-2.944 3.227-6.022 5.16-8.869 2.563-3.774 5.747-6.272 9.25-9.043 2.519 1.556 5.169 2.88 7.92 3.962-1.058 1.08-1.858 2.311-3.108 3.26-1.331 1.013-2.923 1.628-4.512 2.1-.414.122-.234.695.173.63 2.86-.453 6.94-2.797 7.817-5.851 8.13 3.123 17.058 4.196 25.694 3.193 9.378-1.088 19.893-5.123 27.503-11.567.005.015-.004.029.005.045 3.12 5.685 5.04 11.659 6.307 18m-5.76 44.203c-4.564 2.226-12.093 1.722-13.92-3.858-1.543-4.718-1.993-10.02-2.812-14.914 6.026.253 12.497-.044 18.03-2.292-.43 7.026.452 14.229-1.299 21.064m2.848 11.22c.357 4.777-2.696 12.439-8.55 11.62-5.4-.757-10.021-3.842-10.722-9.494-.61-4.93 1.665-9.499 3.237-13.988.05.063.09.128.144.19 2.713 3.129 9.332 3.547 12.845 1.397.036.298.428.433.629.174.765 3.393 2.153 6.557 2.417 10.1m-59.855-34.267c-.037-.026-.07-.013-.106-.022.966-1.517 1.967-3.025 3.008-4.527.495.612.938 1.259 1.3 1.96.68 2.632-.72 3.495-4.202 2.589m-3.886 3.601c-1.942 3.098-3.738 6.437-5.033 9.885-.022-.178-.037-.358-.073-.533-1.15-5.672-6.708-10.164-11.212-13.715.112.002.222-.048.255-.193.55-2.434.852-4.827 1.669-7.202.896-2.607 2.402-4.868 3.976-7.1 2.296.917 4.527 2.076 6.703 3.212 2.274 1.186 4.486 2.499 6.603 3.944 1.244.85 2.326 1.845 3.352 2.929-.032.048-.047.107-.015.16l.006.01c-.605.493-1.945 2.26-1.066 1.179-.49.602-.95 1.245-1.414 1.867-1.338 1.793-2.564 3.662-3.751 5.557m-9.207 19.944c.197-.503.34-1.025.357-1.585.128-4.504-2.898-7.967-5.803-11.08-6.241-6.687-14.383-11.76-23.096-14.527 6.118-5.184 16.448-1.567 20.962 4.37.155.205.475.034.352-.206-.12-.231-.278-.434-.417-.652 3.213 3.204 6.981 5.982 9.505 9.77 2.614 3.921 1.295 10.248-1.86 13.91m-3.329 2.456c-7.84 5.73-15.258-1.827-19.772-7.767-1.92-2.528-3.509-5.292-4.907-8.138-1.556-3.163-5.189-10.618-1.114-13.397 6.426 2.36 12.331 5.538 17.683 9.84 4.777 3.84 15.98 13.71 8.11 19.462m-3.058-39.712c.036-2.377.89-3.2 2.567-2.47.486.13.965.285 1.435.465.211.074.418.166.627.246-1.023 1.124-1.985 2.435-2.816 3.862-.771-.607-1.276-1.238-1.813-2.103m-3.273-18.604c3.257-2.329 5.1-6.554 1.14-9.361-.08-.555-.19-1.073-.258-1.425-.26-1.36-.88-2.678-1.57-3.933.616-.157 1.204-.463 1.808-.665.64-.214 1.323-.298 1.922-.617.043-.022.057-.061.083-.094 1.73 1.087 3.508 2.094 5.353 3.007 1.641.812 3.21 1.581 4.88.702-.113 2.666-.037 5.303.285 7.875-4.152 3.214-8.488 4.174-13.643 4.511m-10.698-.281c-5.392-1.66-10.289-4.973-14.233-8.952-4.365-4.405-5.236-10.204-3.566-15.996 1.028-3.565 3.12-6.951 7.267-6.761 3.554.162 8.292 1.883 7.678 6.268-3.84.224-6.389 3.055-8.082 6.613-.204.428.354.748.63.368 1.729-2.383 3.114-4.888 6.094-5.84 3.564-1.14 7.67 1.448 8.47 4.924-3.374.084-6.777 3.744-6.825 7.758-.003.236.331.222.357 0 .507-4.377 6.047-10.414 9.916-5.018.837 1.168 1.46 2.542 2.082 3.829.386.82.687 1.67.899 2.549.434 1.556-.821 5.18-2.462 2.024-.166-.32-.672-.097-.574.242.405 1.406 2.476 2.923 3.837 1.56.278-.277.391-.725.424-1.227 1.723 2.594.911 5.568-1.819 7.466-2.946 2.048-6.957 1.157-10.093.193m1.144-29.332c2.306 2.122 2.779 4.81 3.022 7.646-.984-2.005-3.384-3.478-5.502-3.716-.403-.045-.788-.054-1.165-.048.546-2.276-.508-4.17-2.368-5.604-.641-.496-1.752-.97-3.005-1.315 3.414-.088 6.418.644 9.018 3.037m11.762 11.66c-2.767-1.834.929-6.878 2.147-9.17 1.618-3.042 3.591-5.895 5.73-8.59 1.187-1.497 4.575-6.091 7.455-7.484 1.321-.074 2.638-.211 3.947-.396-3.971 9.133-7.496 19.982-8.086 30.434-.061-.017-.12-.043-.193-.027-3.49.785-8.213-2.918-11-4.767m41.406-27.746c-2.08-.735-4.234-1.272-6.405-1.647-.055-.01-.094.014-.138.028.074-.298.145-.597.204-.897.03-.156-.175-.254-.262-.11-1.535 2.523-2.428 5.535-3.537 8.27-1.602 3.95-7.58-2.084-9.09-4.04 3.506-.722 6.92-1.837 10.124-3.337 5.92-2.772 11.015-7.132 14.802-12.428.78 3.935.332 7.622-1.067 11.405-.433 1.171-1.02 2.264-1.626 3.35-.4.72-2.579-.444-3.005-.594m-2.225 6.583c-2.735 2.023-4.582-.333-6.57-1.794-.012-.01-.023.004-.034.002.759-1.957 1.616-3.944 2.169-5.963.031.029.05.064.102.078 2.564.677 5.054 1.446 7.5 2.422-.971 1.881-1.331 3.898-3.167 5.255m-4.351 1.025c1.112.521 2.43.654 3.61.36 1.314-.326 2.386-1.314 3.18-2.53 2.446 5.447 6.023 10.567 9.363 15.483.872 1.281 1.775 2.543 2.688 3.797.925 1.274-.93 3.604-1.493 4.674-1.662 3.165-3.438 6.267-5.266 9.338-.663 1.112-6.624-3.798-7.435-4.4-1.497-1.109-2.962-2.26-4.417-3.423-1.78-1.418-1.167-3.654-.82-5.536 1.073-5.82 1.224-11.883.59-17.763M64.44 102.19c-10.832-3.166-16.338-12.115-21.516-21.354 1.946-.8 3.37-2.634 3.163-5.371-.284-3.759-2.19-7.35-3.308-10.9-1.763-5.601-.06-10.487 3.852-14.66 3.263-3.484 7.674-5.898 11.717-8.35 4.487-2.72 9.104-5.212 13.972-7.182 3.706-1.5 7.588-2.4 11.479-3.27 4.328-.966 9.519-2.273 12.93 1.305 5.142 5.395 4.483 14.947 12.149 18.095 1.625.668 2.94.708 4.074.31 2.162 4.434 4.08 8.502 4.732 13.498.655 5.013-.041 10.125-1.632 14.896-3.086 9.258-10.569 16.63-19.154 20.912-4.802 2.395-10.06 3.668-15.397 4.011-.163-.01-.327.004-.492.036-5.591.298-11.258-.424-16.569-1.976m-23.189-9.408c-3.04-3.05-2.884-7.755-1.894-11.614 1.04.198 2.095.138 3.057-.156 2.535 5.138 5.31 9.996 8.964 13.976-3.819 1.218-7.206.726-10.127-2.206M30.281 67.07c-1.754-3.399-3.083-7.206-5.082-10.441-.674-1.092-1.73-1.763-2.835-2.34-2.597-1.359-5.423-2.396-8.103-3.584-3.66-1.622-7.67-2.979-10.75-5.613-2.441-2.087-3.302-5.802-1.14-8.42 2.278-2.757 6.865-1.53 9.7-.819.442.11.627-.56.188-.68-.755-.205-1.501-.392-2.242-.546-3.023-2.043-5.51-4.375-7.413-7.606-3.092-5.251-1.571-13.517 6.05-12.432 3.59.51 6.929 2.627 10.489 3.434 3.382.765 6.835.665 10.23.08.39-.067.301-.733-.093-.691-1.366.145-2.69.182-3.992.15-2.286-2.972-3.34-6.552-1.306-10.016 2.39-4.066 7.796-2.116 11.376-1.357 5.991 1.269 12.155.933 18.109-.332 12.145-2.58 25.092-8.555 35.457 1.565.351.343.986-.11.695-.537-.053-.077-.114-.147-.169-.222.103-.037.177-.143.108-.263-.703-1.226-1.102-2.396-.387-3.739.9-1.688 2.973-.97 4.196-.324 1.427.754 2.539 2.05 3.615 3.219.296.32.813-.044.686-.415 1.898-.57 4.151-.795 5.785.551 1.506 1.243-.398 2.424-1.342 2.722-.546.172-1.17.184-1.648.503-.068-.03-.133-.068-.203-.097-.295-.13-.556.283-.258.443 8.294 4.447 13.695 11.961 16.946 20.655 1.882 5.034 2.249 10.22-.089 15.146-.964 2.03-2.785 4.83-5.198 5.115-3.169.373-6.44-3.539-7.777-5.882-2.654-4.65-3.863-14.323-10.594-15.185-7.154-.916-15.794 1.962-22.316 4.598-7.943 3.208-15.918 7.875-22.655 13.164-6.24 4.9-8.689 11.35-6.28 18.95 1.27 4.01 6.513 13.789-1.147 14.425-5.682.472-8.558-9.201-10.611-13.179m93.588-11.158c-.832 3.43-2.939 5.807-4.93 8.552-.506-5.184-2.19-10.197-5.271-13.971 1.39-.767 2.51-2.232 3.635-4.016.417-.663.75-1.35 1.043-2.046.031.019.055.045.098.05 5.912.708 6.56 6.743 5.425 11.431m-3.233 9.386c.44.226.754.62 1.175.862-.587.849-1.173 1.697-1.756 2.547-.307-.437-.612-.879-.91-1.33-.013-.02-.032-.02-.049-.034-.011-.698-.043-1.394-.095-2.09.099.036.204.045.303-.024.133-.093.247-.214.376-.313.32.121.647.222.956.382m40.838-29.832c3.4-3.242 7.548-9.387 5.394-13.6-2.424-4.743-8.497 1.612-11.355 4.925 1.253-2.465 2.127-5.384 2.496-7.866.304-2.035.02-4.732-1.642-6.143-3.729-3.163-8.87 7.779-10.928 11.78.62-3.86.115-8.269-4.593-8.85-5.43-.67-4.256 10.403-4.494 13.007-.414 4.522-1.29 9.005-2.101 13.47-.811 4.456-2.776 8.134-4.89 12.082-2.11 3.939-4.625 7.647-7.163 11.328-.39-.588-1.222-1.023-1.988-1.125 3.44-2.999 5.177-8.11 5.269-12.51.083-4.013-2.746-8.041-6.974-7.96 1.486-3.875 1.236-8.18.136-12.191-2.46-8.976-8.537-17.972-16.95-22.303.71-.153 1.444-.504 1.94-.822.921-.592 1.23-1.752.898-2.74-.842-2.501-5.183-2.043-7.078-1.153-1.555-2.283-4.336-4.49-7.2-3.97-2.2.4-2.574 2.854-1.812 4.612-3.63-3.85-9.454-5.02-14.577-5.031C65.626.387 57.8 4.1 49.767 5.46c-5.07.858-10.313.546-15.328-.477-3.229-.657-6.279-1.527-9.33.173-4.755 2.654-3.25 8.898-.464 12.391-4.325-.198-8.384-1.311-12.593-2.987-3.473-1.383-8.153-2.004-10.516 1.667-4.246 6.596 1.03 14.485 7.086 18.156-2.05-.27-4.057-.123-6.06.975-2.588 1.418-2.734 4.6-1.996 7.076.913 3.061 4.026 4.887 6.677 6.208 4.76 2.372 9.757 4.348 14.616 6.509 3.485 1.55 4.662 7.062 6.382 10.262 2.334 4.34 4.103 9.35 7.1 13.273.934 1.224 2.175 1.987 3.48 2.35-1.583 4.181-1.057 8.87 1.784 12.394 2.451 3.042 7.71 4.444 11.092 2.272.082-.053.125-.129.152-.209 3.025 3.168 6.643 5.745 11.207 7.4 5.084 1.844 10.544 2.652 15.989 2.516-2.426 2.053-4.647 4.285-6.697 6.725-4.332 5.156-7.565 11.163-9.806 17.498-.087.245.062.481.252.619.82.592 1.655 1.154 2.497 1.701-1.113.182-2.396.848-3.2 1.536-.318-.563-.644-1.114-.953-1.647-1.163-2.005-2.697-2.878-4.263-2.953.013-.126.02-.25.02-.374.088-.018.17-.065.21-.17 2.735-7.416-6.22-14.768-13.117-12.739-.08.024-.113.1-.107.168-2.164-.518-4.617-.63-5.85.194-3.16 2.114-4.484 6.586-5.086 10.15-.667 3.953.26 7.819 2.367 11.17 4.414 7.023 14.494 12.716 22.719 12.959 1.376.04 2.84-.414 4.15-1.178 5.387.796 11.933-.61 15.584-4.879.04-.045.065-.094.084-.14.828.598 1.677 1.162 2.54 1.705-7.287 2.953-12.874 12.241-15.537 19.164-.12.313.232.492.484.385-.306 1.716 1.067 3.32 2.582 4.187.006.004.012 0 .017.002-1.815 3.198-2.97 6.929-2.714 10.35.002.02.017.03.022.047l-.872-.688c-.194-.153-.41-.053-.49.112-2.327-2.46-5.89-3.881-8.944-4.985-3.97-1.435-8.763-.851-11.544 2.542-.01.01-.004.024-.012.035-.038 0-.068-.02-.11-.002-.044.019-.076.05-.12.07-.031.01-.058.022-.08.045-2.204 1.078-2.591 4.24-2.147 6.475.956 4.8 3.364 9.4 5.956 13.503 4.49 7.11 11.064 14.926 20.267 12.01 1.464-.464 3.056-1.38 4.215-2.613.044-.001.087-.025.09-.078 0-.01.013-.027.016-.038.199-.221.38-.45.547-.692.371-.38.8-.771.88-.864.94-1.096 1.69-2.346 2.387-3.604.85-1.536 1.491-3.453 1.584-5.31.008-.011.021-.01.028-.023 2.753-4.947 5.442-9.733 8.416-14.436.01.013.005.03.018.042 2.105 2.001 4.323.483 6.104-1.202.12-.114.181-.319.126-.477-.022-.065-.054-.123-.077-.187 3.854-5.792 8.102-11.565 15.704-12.065 9.435-.62 11.844 10.4 13.582 17.314.095.38.512.345.685.1 1.34.102 2.724.192 4.136.257.391 3.692.942 7.356 1.572 11.014.42 2.44.712 4.879 2.19 6.873-.038.01-.073.032-.097.069-3.024 4.562-4.623 10.846-3.585 16.256 1.064 5.543 7.179 7.881 12.13 8.604 4.709.687 7.767-5.321 8.724-9.042 1.222-4.752-.617-10.856-2.723-15.113.995-2.483.837-5.307.813-7.958-.039-4.36.03-8.76-.256-13.112 1.991-.843 3.862-1.93 5.53-3.361.4-.344-.117-.984-.555-.72-.089.054-.177.102-.266.155.064-.023.127-.055.174-.116 3.492-4.536 1.668-11.89.728-17.01-1.297-7.062-3.34-14.173-7.27-20.249-.031-.047-.076-.059-.117-.08 1.72-1.496 3.286-3.116 4.644-4.857.006-.008.007-.015.012-.022.068-.043.13-.1.183-.18 2.235-3.326.78-7.004-1.705-9.717-1.79-1.956-4.278-3.36-6.348-4.98-2.158-1.688-4.13-3.602-6.027-5.575-2.672-2.778-5-5.766-7.151-8.868.273-.106.537-.297.852-.579 1.965-1.755 3.542-4.187 5.144-6.276 3.704-4.827 6.928-10.012 9.784-15.38.157-.296.028-.705-.32-.788l-.033-.008c.253-2.487-1.175-6.245-3.288-7.923.822-2.127 1.549-4.296 2.379-6.188 1.54-3.508 3.257-6.937 5.052-10.32 2.025-3.816 4.11-8.258 7.613-10.923 2.61-1.984 5.978-2.727 8.579-4.75 2.357-1.832 4.112-3.96 4.928-6.864 1.092-3.885-2.521-2.997-5.404-1.677" mask="url(#dvag5emaud)"/>
                </g>
                <path fill="#FBB980" d="M165.994 37c-2.932 3.199-6.706 5.637-10.861 6.936-2.442.763-5.057 1.174-7.203 2.56-2.697 1.745-4.234 4.748-5.752 7.567-4.3 7.99-9.394 15.556-15.178 22.56 2.454 2.155 5.16 3.973 8.16 5.377l.052-.045c.003-.002.006 0 .009-.003.182-.411.504-.988.57-1.141.488-1.138.961-2.283 1.423-3.433.884-2.203 1.76-4.41 2.686-6.598 2.213-5.23 4.748-10.345 7.608-15.257 1.138-1.955 2.268-4.163 3.966-5.719 1.869-1.71 4.074-2.724 6.331-3.838 2.819-1.39 5.879-3.157 7.4-6.04.447-.845.85-2.03.789-2.926" transform="rotate(30 33.748 78.752)"/>
                <path fill="#664F50" d="M117 44.215c-2.006-1.29-3.817-2.952-5.301-4.77-3.952-4.839-6.307-10.75-9.716-15.98-.518-.797-1.33-1.683-2.248-1.417-.613.177-.976.82-1.553 1.09-.726.343-1.573.026-2.335-.229-6.528-2.186-13.575.468-20.045 2.821C61.6 30.896 32.847 34.782 31.988 37.2c-.86 2.42 2.577 2.674 4.309 3.296-6.391 1.741-12.938 3.343-19.559 3.035-5.509-.255-11.12-2.036-15.245-5.575-1.137 2.443-.222 5.398 1.87 7.172 3.078 2.611 7.086 3.957 10.742 5.565 2.678 1.178 5.503 2.206 8.098 3.553 1.103.573 2.16 1.237 2.833 2.32 1.998 3.207 3.326 6.982 5.078 10.352C32.167 70.86 35.04 80.45 40.72 79.983c7.655-.63 2.416-10.326 1.146-14.3-2.408-7.535.039-13.93 6.276-18.788 6.733-5.244 14.702-9.872 22.64-13.052 6.519-2.612 15.152-5.466 22.302-4.558 6.727.855 7.935 10.445 10.588 15.055 1.336 2.323 4.606 6.201 7.772 5.831 2.412-.283 4.232-3.058 5.195-5.07.14-.294.24-.59.361-.886" transform="rotate(30 33.748 78.752)"/>
                <path fill="#917272" d="M47.858 8.37c5.266-.584 10.564-1.174 15.64-2.658 4.261-1.246 8.586-3.14 12.974-2.428 3.62.587 6.94 2.915 10.528 3.018-10.09-8.103-22.395-2.71-33.97-.318-5.937 1.227-12.083 1.554-18.058.322-3.569-.736-8.96-2.628-11.342 1.318-.26.431-.467.864-.63 1.297 1.266-.69 2.768-1.062 4.22-1.119 2.78-.109 5.508.651 8.267.985 4.105.493 8.261.038 12.371-.417M22 19.22c-1.013-.09-2.023-.241-3.027-.481-3.567-.854-6.912-3.096-10.509-3.637C3.844 14.408 1.474 17.345 1 21c.606-1.043 1.424-1.943 2.445-2.533 5.512-3.191 12.786 2.23 18.555.752M96.682 6.556c2.287.54 5.032-.867 6.907.486-.114.337-.28.653-.47.958.777-.505 1.362-1.294.316-2.11-1.648-1.286-3.92-1.071-5.835-.527.128.355-.393.702-.691.396-1.086-1.116-2.208-2.353-3.646-3.072-1.235-.618-3.326-1.302-4.233.31-.012.022-.019.043-.03.064 1.356-.383 2.828.323 3.952 1.173 1.173.888 2.273 1.979 3.73 2.322" transform="rotate(30 33.748 78.752)"/>
                <path fill="#FBB980" d="M123 59.72c-.514-.403-.976-.871-1.357-1.389-1.465-1.99-1.974-4.51-2.213-6.96-.198-2.04-.15-4.293.929-5.97-.473-.156-.974-.284-1.537-.351-.044-.005-.068-.032-.1-.05-.295.696-.632 1.38-1.052 2.042-1.136 1.781-2.267 3.244-3.67 4.01 3.11 3.768 4.81 8.772 5.322 13.948 1.307-1.784 2.658-3.416 3.678-5.28M52 95.382c-3.777-4.096-6.646-9.094-9.265-14.382-.996.303-2.086.365-3.161.161-.262 1.016-.466 2.09-.574 3.176 4.741 1.65 8.351 6.467 8.218 11.52 0 .028-.004.059-.005.088 1.515.16 3.108-.03 4.787-.563M76.708 136c-1.17.581-2.29.413-3.419.001-2.47 1.604-5.14 2.926-7.941 3.933 2.417 2.647.605 6.073-2.348 8.066 5.29-.326 9.74-1.258 14-4.37-.33-2.492-.408-5.047-.292-7.63" transform="rotate(30 33.748 78.752)"/>
                <path fill="#FBB980" d="M58.12 143.603c-.205.267-.57-.072-.437-.343.868-1.78 1.406-3.379 1.619-5.359.033-.308.455-.316.476 0 .14 1.975-.46 4.141-1.658 5.702m5.987-3.352c-.032.505-.145.956-.418 1.234-1.346 1.37-3.39-.155-3.791-1.568-.097-.34.404-.564.567-.243 1.621 3.171 2.86-.47 2.431-2.033-.003-.016-.009-.03-.013-.046-.138-.03-.278-.052-.414-.098-1.39-.473-2.454-1.781-3.904-1.983-1.65-.23-3.127 1.057-4.124 2.416-.996 1.36-1.833 2.94-3.28 3.78-1.575.915-3.552.74-5.28.177-3.741-1.217-6.811-4.069-9.004-7.387-1.143-1.729-2.068-3.585-2.877-5.5.159 3.648 1.496 7.094 4.282 9.953 3.896 3.998 8.733 7.327 14.058 8.994 3.098.969 7.06 1.864 9.97-.194 2.697-1.907 3.499-4.895 1.797-7.502M116.12 78.968c1.593-4.753 2.29-9.845 1.634-14.84-.653-4.977-2.575-9.029-4.741-13.447-1.136.398-2.454.358-4.083-.307-7.68-3.137-7.02-12.652-12.174-18.026-3.418-3.565-8.62-2.263-12.956-1.3-3.899.866-7.788 1.763-11.503 3.258-4.877 1.961-9.503 4.443-14 7.153-4.052 2.443-8.471 4.848-11.741 8.318-3.92 4.158-5.627 9.025-3.86 14.604 1.121 3.537 3.03 7.115 3.315 10.859.121 1.591-.325 2.867-1.097 3.82 1.737-1.13 2.94-3.464 3.064-5.644.188-3.293-1.044-6.55-.815-9.84.437-6.297 5.942-10.967 11.324-14.308 5.688-3.53 11.752-6.465 18.055-8.737 2.232-.805 6.076-1.927 8.397-2.422 3.01-.641 5.732-.353 7.31 1.07 6.88 6.204 12.44 12.17 15.11 20.354.825 2.527 1.078 5.207 1.099 7.865.097 12.51-5.403 24.762-14.257 33.602.921-.367 1.833-.757 2.724-1.2 8.605-4.265 16.102-11.61 19.195-20.832" transform="rotate(30 33.748 78.752)"/>
                <path fill="#C6E9FA" d="M80.188 105.39c-1.91.94-4.052 3.365-5.578 5.268 1.14 4.093.895 8.565-.084 12.739-.84 3.578-2.169 7.004-3.526 10.419 1.724.875 3.484 1.426 5.005 1.079.07-.016.126.01.185.026.57-10.276 3.974-20.942 7.81-29.921-1.264.182-2.536.317-3.812.39M136.262 83c-4.572 2.639-9.82 4.09-15.088 4.072-2.243-.008-4.699-.407-6.463-1.68-.233.4-.464.803-.711 1.195 4.23 6.388 7.812 13.114 12.052 19.413 1.545-.54 3.51-3.858 4.299-4.875 1.597-2.063 3.152-4.164 4.6-6.34 2.186-3.288 4.19-6.676 6.049-10.163-1.602-.424-3.188-.97-4.738-1.622" transform="rotate(30 33.748 78.752)"/>
                <path fill="#C6E9FA" d="M137.297 121.566c-3.676-3.137-6.909-6.668-9.88-10.485-5.649-7.259-10.71-15.656-14.48-24.081-.1.155-.196.314-.298.468.015.023.032.042.044.07 2.288 5.493.115 12.149-2.954 16.89-.158.243-.416.292-.668.177-.346-.156-.696-.292-1.044-.439-.146.992-.491 2.075-1.017 3.08 4.405 6.862 8.233 13.936 13.099 20.521.106.143.073.35 0 .496-2.103 4.214-4.362 8.338-6.742 12.395 1.415-1.478 3.108-2.584 5.023-2.213 2.23.432 3.636 2.882 3.625 5.174-.01 2.292-1.103 4.428-2.281 6.387-.203.338-.43.66-.638.994 4.654-1.06 9.184-2.689 13.378-5.004 5.047-2.787 9.13-6.412 13.458-10.151-.018-.116-.006-.24.078-.373 3.963-6.275-4.874-10.638-8.703-13.906" transform="rotate(30 33.748 78.752)"/>
                <path fill="#0087C2" d="M108 104.53c-2.503-.988-5.052-1.765-7.675-2.45-.053-.015-.073-.051-.105-.08-.565 2.044-1.443 4.055-2.22 6.037.012.002.023-.01.035-.002.412.3.817.635 1.226.965.289-.977.72-1.912 1.315-2.742.264-.368.568-.726.974-.93.44-.219.952-.234 1.445-.243 1.533-.033 3.122-.042 4.6.297.127-.285.258-.57.405-.851" transform="rotate(30 33.748 78.752)"/>
                <path fill="#C6E9FA" d="M112.446 97.562c.652-2.81.75-5.617.18-8.562-3.741 5.342-8.775 9.742-14.624 12.538-3.166 1.514-6.538 2.639-10.002 3.367.541.716 1.667 1.973 2.954 3.095.923-1.134 2.27-1.983 3.685-2.326 1.2-.291 2.424-.308 3.65-.188.627-1.681 1.294-3.35 2.186-4.849.087-.145.289-.046.258.111-.056.303-.127.604-.2.905.043-.014.082-.038.135-.028.966.17 1.926.38 2.88.619.963-1.714 2.503-3.129 4.299-3.893 1.455-.62 3.026-.85 4.599-.79" transform="rotate(30 33.748 78.752)"/>
                <path fill="#00B7F0" d="M115.81 124.156l-.747-1.156c-5.516 1.533-10.94 4.79-16.025 7.907-.127 1.325.018 2.622 1.145 3.569.212.178.43.347.642.524 5.953-1.906 12.246-4.02 17.175-7.587-.74-1.078-1.479-2.157-2.19-3.257M111 117.468c-1.142-1.787-2.23-3.61-3.213-5.468-2.632 1.107-5.206 2.594-7.687 4.025.062 1.99.034 3.988-.1 5.975 3.6-1.37 7.535-2.676 11-4.532" transform="rotate(30 33.748 78.752)"/>
                <path fill="#0087C2" d="M118.752 128.018c-.887-1.237-1.765-2.48-2.614-3.746-3.249-4.848-6.727-9.899-9.107-15.272-.758 1.179-1.783 2.134-3.031 2.472.312.433.575.924.801 1.391 3.368 6.973 6.825 14.415 6.058 22.14-.202 2.024-.69 3.992-1.318 5.924 1.273.824 2.376 1.356 2.637.913 1.78-3.03 3.505-6.09 5.123-9.21.547-1.056 2.352-3.356 1.451-4.612" transform="rotate(30 33.748 78.752)"/>
                <path fill="#009ADE" d="M108.557 111c-1.198.515-2.384 1.104-3.557 1.734.98 2.053 1.954 4.143 2.832 6.266 1.432-.606 2.83-1.27 4.168-2.005-1.224-1.96-2.389-3.957-3.443-5.995" transform="rotate(30 33.748 78.752)"/>
                <path fill="#664F50" d="M92.832 48.763c-1.216-2.694-4.595-3.35-7.182-2.264-2.393 1.005-4.367 3.91-3.398 6.49.396 1.055 1.966 1.469 2.59.331.558-1.018 1.01-2.051 2.213-2.48 1.14-.405 2.659.144 3.74.514 1.662.567 2.61-1.32 2.037-2.591M63.549 60.393c-4.068-3.435-11.376-.075-10.472 5.273.218 1.29 2.292 1.815 3.14.8.745-.888 1.37-2.065 2.356-2.726 1.145-.769 2.57-.884 3.92-.885 1.238-.002 2.064-1.612 1.056-2.462" transform="rotate(30 33.748 78.752)"/>
                <path fill="#50374E" d="M97.838 58.984c-1.366-2.305-4.375-2.356-6.674-1.395-2.553 1.066-3.64 4.047-2.97 6.475.398 1.442 2.696 1.133 2.695-.348-.001-1.224.535-2.43 1.637-3.096 1.171-.708 2.756-.23 3.992.007.987.189 1.851-.746 1.32-1.643M69.822 71.144c-1.567-2.022-4.673-2.737-7.144-1.61-2.569 1.17-4.51 3.986-3.318 6.588.465 1.013 2.256 1.318 2.583 0 .339-1.366.788-2.759 2.158-3.516 1.334-.739 3.038-.328 4.384.136.948.327 1.924-.84 1.337-1.598" transform="rotate(30 33.748 78.752)"/>
                <path fill="#F79C62" d="M80.71 76.4c-.551.593-1.766.74-2.422.2-.841-.694.114-2.035.897-2.328.709-.265.594-1.199-.177-1.262-2.479-.205-3.779 2.89-2.522 4.712 1.384 2.004 4.603 1.542 5.47-.624.27-.674-.765-1.215-1.247-.698" transform="rotate(30 33.748 78.752)"/>
                <path fill="#F06464" d="M72.004 87.89c-.338-3.078 18.76-13.073 23.718-10.459 4.96 2.615 1.51 14.599-7.331 18.52-8.84 3.922-15.955-4.14-16.387-8.061" transform="rotate(30 33.748 78.752)"/>
                <path fill="#EE3A50" d="M87.942 84.608c-2.17.677-4.156 1.886-6.006 3.252-2.328 1.719-4.512 3.758-5.936 6.338 2.945 2.44 7.194 3.926 11.963 1.735 4.79-2.2 7.96-6.887 9.037-11.102-2.946-.975-6.098-1.146-9.058-.223" transform="rotate(30 33.748 78.752)"/>
                <path fill="#F06464" d="M105.883 60.03c-1.645-.148-3.464.264-4.828 1.144-.747.48-1.364 1.022-1.81 1.758-.554.917-.14 2.108.953 2.453.012.004.024.004.036.007.306.337.767.574 1.375.601 2.46.11 4.793-1.175 6.08-3.072.907-1.34-.311-2.758-1.806-2.892M61.883 81.03c-1.645-.148-3.464.264-4.827 1.144-.748.48-1.365 1.021-1.81 1.758-.555.917-.141 2.108.952 2.453.013.004.024.004.036.008.306.337.767.573 1.375.6 2.46.11 4.793-1.174 6.08-3.072.907-1.34-.311-2.758-1.806-2.892" transform="rotate(30 33.748 78.752)"/>
            </g>
        </g>
    </g>
</svg>
