<svg xmlns="http://www.w3.org/2000/svg" width="30" height="25" viewBox="0 0 30 25">
    <path fill="#2FAEF2" d="M9.442 24.933c11.307 0 17.493-9.366 17.493-17.494 0-.266 0-.533-.019-.8 1.2-.875 2.246-1.96 3.084-3.178-1.104.476-2.303.818-3.54.952 1.275-.762 2.245-1.961 2.702-3.389-1.18.705-2.512 1.218-3.902 1.485-1.123-1.2-2.722-1.942-4.492-1.942-3.408 0-6.149 2.76-6.149 6.149 0 .476.057.952.152 1.408C9.67 7.858 5.121 5.421 2.094 1.69c-.533.914-.838 1.961-.838 3.103 0 2.132 1.085 4.017 2.741 5.12-1.008-.037-1.96-.323-2.779-.78v.076c0 2.989 2.113 5.464 4.93 6.035-.513.133-1.066.21-1.618.21-.4 0-.78-.039-1.16-.096.78 2.436 3.045 4.207 5.748 4.264-2.113 1.656-4.759 2.627-7.633 2.627-.514 0-.99-.02-1.485-.076 2.722 1.75 5.958 2.76 9.442 2.76z"/>
</svg>
