<svg xmlns="http://www.w3.org/2000/svg" width="70" height="48" viewBox="0 0 70 48">
    <g fill="#30405D">
        <path d="M64.986 6.723h-7.843V1.12c0-.618-.502-1.12-1.12-1.12H35.853c-.618 0-1.12.502-1.12 1.12v5.603H4.482C2.008 6.725.002 8.73 0 11.204v31.373c.003 2.474 2.008 4.479 4.482 4.482h60.504c2.474-.003 4.479-2.008 4.482-4.482V11.204c-.003-2.473-2.008-4.478-4.482-4.481zM36.975 2.24h17.927v11.204H44.818c-.297 0-.582.118-.793.328l-3.689 3.69v-2.897c0-.619-.502-1.12-1.12-1.12h-2.241V2.24zM2.24 20.483l2.24.56v11.695l-2.24.56V20.483zm34.734 24.335h-2.241v-5.602c0-.62-.502-1.12-1.12-1.12-.62 0-1.121.5-1.121 1.12v5.602H21.289v-5.602c0-.62-.502-1.12-1.12-1.12-.62 0-1.121.5-1.121 1.12v5.602h-2.241v-8.964c.001-1.237 1.004-2.239 2.24-2.24.074 0 .148-.008.22-.023l4.53-.905c.527 1.242 1.745 2.048 3.094 2.048 1.348 0 2.566-.806 3.094-2.048l4.529.905c.072.015.146.023.22.022 1.237.002 2.24 1.004 2.24 2.241v8.964zm-5.602-22.839v2.67c-.003 1.856-1.506 3.36-3.362 3.362h-2.24c-1.856-.002-3.36-1.506-3.362-3.361v-1.147c1.945-.076 6.003-.371 8.964-1.524zm-8.964-.717v-1.094c.002-1.855 1.506-3.359 3.361-3.361h2.241c1.62.002 3.009 1.158 3.306 2.75-2.331 1.19-6.5 1.605-8.908 1.705zm5.602 8.99v1.12c0 .62-.501 1.121-1.12 1.121-.62 0-1.12-.502-1.12-1.12v-1.12h2.24zm39.216 12.325c-.002 1.237-1.004 2.24-2.241 2.24h-25.77v-8.963c-.003-2.427-1.936-4.413-4.363-4.48l-4.6-.92v-.671c2.039-.893 3.358-2.907 3.36-5.133v-4.482c-.003-3.093-2.509-5.6-5.602-5.602h-2.24c-3.093.003-5.6 2.51-5.603 5.602v4.482c.003 2.226 1.322 4.24 3.361 5.133v.67l-4.6.92c-2.427.068-4.36 2.054-4.363 4.481v8.964H4.482c-1.237-.002-2.24-1.004-2.241-2.241v-6.968l3.633-.909c.499-.124.849-.572.849-1.087V20.168c0-.514-.35-.962-.85-1.087l-3.632-.909v-6.968c.002-1.236 1.004-2.239 2.24-2.24h30.253v5.602c0 .619.502 1.12 1.12 1.12h2.241v4.482c0 .454.273.862.692 1.036.419.174.9.078 1.221-.243l5.274-5.275h10.74c.62 0 1.12-.501 1.12-1.12V8.964h7.844c1.237.001 2.24 1.004 2.24 2.24v31.373z"/>
        <path d="M39.216 8.964H52.66c.619 0 1.12-.502 1.12-1.12 0-.62-.501-1.121-1.12-1.121H39.216c-.62 0-1.12.501-1.12 1.12 0 .619.5 1.12 1.12 1.12zM39.216 5.602H52.66c.619 0 1.12-.501 1.12-1.12 0-.619-.501-1.12-1.12-1.12H39.216c-.62 0-1.12.501-1.12 1.12 0 .619.5 1.12 1.12 1.12zM39.216 12.325h4.481c.62 0 1.12-.502 1.12-1.12 0-.62-.5-1.121-1.12-1.121h-4.481c-.62 0-1.12.502-1.12 1.12 0 .62.5 1.12 1.12 1.12zM48.18 10.084h-1.121c-.619 0-1.12.502-1.12 1.12 0 .62.501 1.12 1.12 1.12h1.12c.62 0 1.12-.5 1.12-1.12 0-.618-.5-1.12-1.12-1.12z"/>
    </g>
</svg>
